<?xml version="1.0" encoding="UTF-8"?>
<!DOCTYPE svg PUBLIC "-//W3C//DTD SVG 1.1//EN" "http://www.w3.org/Graphics/SVG/1.1/DTD/svg11.dtd">
<!-- Creator: CorelDRAW 2020 (64-Bit) -->
<svg xmlns="http://www.w3.org/2000/svg" xml:space="preserve" width="64px" height="64px" version="1.1" style="shape-rendering:geometricPrecision; text-rendering:geometricPrecision; image-rendering:optimizeQuality; fill-rule:evenodd; clip-rule:evenodd"
viewBox="0 0 6400000 6400000"
 xmlns:xlink="http://www.w3.org/1999/xlink"
 xmlns:xodm="http://www.corel.com/coreldraw/odm/2003">
 <defs>
  <style type="text/css">
   <![CDATA[
    .fil5 {fill:#333B24}
    .fil7 {fill:#808596}
    .fil3 {fill:#96B7C8;fill-rule:nonzero}
    .fil2 {fill:#A8050D;fill-rule:nonzero}
    .fil4 {fill:#B7D4E4;fill-rule:nonzero}
    .fil1 {fill:#C2121A;fill-rule:nonzero}
    .fil10 {fill:#C98F90;fill-rule:nonzero}
    .fil0 {fill:#D70C17;fill-rule:nonzero}
    .fil9 {fill:#DCF0FC;fill-rule:nonzero}
    .fil12 {fill:#E0DDDE;fill-rule:nonzero}
    .fil6 {fill:#E19494;fill-rule:nonzero}
    .fil8 {fill:#E7A990;fill-rule:nonzero}
    .fil11 {fill:#FAFAFA;fill-rule:nonzero}
   ]]>
  </style>
 </defs>
 <g id="Слой_x0020_1">
  <metadata id="CorelCorpID_0Corel-Layer"/>
  <g id="_1846247943456">
   <path class="fil0" d="M949900 5412000l-760700 760800 0 -760800 760700 0zm2478000 -3734200l-3238700 3277300 0 -3277300 3238700 0zm1256100 0l-3411600 3412400 -764600 0 3372400 -3412400 803800 0zm227200 227900l0 4494300 -1005800 0 0 -3487700 1005800 -1006600zm-1327700 1329100l0 1855400 -1856100 0 1856100 -1855400zm0 2177200l0 988000 -3166400 0 987800 -988000 2178600 0z"/>
   <path class="fil1" d="M2875900 2151000l-8000 -85400c0,0 73400,-6700 173100,3700l386900 -391500 -1530800 0c214700,511900 836500,372300 978800,473200zm506200 30900c66600,45300 124200,107600 160600,193200 0,0 98700,-112100 120100,-208100 0,0 101600,150500 258600,273700l762600 -762900 -803800 0 -498100 504100zm834100 419300c190600,102900 200300,245400 361300,240700l-38700 -76100c0,0 287400,59100 368400,627100 900,6200 2500,12100 4000,18100l0 -1505300 -695000 695500z"/>
   <path class="fil2" d="M1987900 1677800c287900,385900 915600,194600 1046300,287300l-7400 -78900c0,0 82100,-7500 188500,6700l212600 -215100 -1440000 0zm1551900 344500c45300,38500 84100,87500 110600,149800 0,0 91200,-103600 110900,-192300 0,0 127400,188700 314600,306400l608100 -608400 -803800 0 -340400 344500zm829200 425900c90800,80000 121900,158600 237600,155200l-35800 -70200c0,0 265600,54600 340400,579400l0 -1206900 -542200 542500z"/>
   <path class="fil0" d="M6040500 882400c179300,387700 221100,879700 106100,1607100 -156100,987000 -635300,990400 -660500,2123100l-118900 16900c0,0 -324000,-443100 -352600,-1071900 -29700,-648600 56700,-1083400 -522800,-1499700 -114200,-82100 -162200,-213700 -161100,-368700 -100300,-62300 -209300,-115900 -325900,-157100 -633000,-223600 -1443300,12900 -1628800,131800 -64500,-291400 116800,-462400 488100,-849000 331600,-870400 1770700,-872100 2093100,-769200 224000,71500 378800,279700 789200,346000 242500,77500 296700,295300 294100,490700z"/>
   <path class="fil3" d="M5047500 4919800c9300,-36000 24100,-74300 40200,-82400 57900,101700 129800,140600 263300,124500 133600,-16100 202000,27600 202000,27600 0,0 5300,-54200 -40700,-93900 64700,-12100 159000,-29800 204800,-104200 -19400,-4500 -75700,-24000 -75700,-24000 0,0 184900,-82600 220900,-235200 36200,-152500 -45300,-227700 -45300,-227700 0,0 7400,123300 -64600,217300 71000,-182000 -35500,-370500 -118800,-438800 -92200,-75500 -223200,-66000 -268800,-123100 -11000,24700 23200,71900 23200,71900 0,0 -154600,200 -216400,33600 7700,23400 30400,30400 30400,30400 0,0 -162600,14400 -263600,158800 -105400,150900 -118400,427300 109100,665200z"/>
   <path class="fil4" d="M5123100 4889300c-57000,-170900 -93900,-359700 -65300,-403600 29200,-44800 79300,-65900 126200,-65900 53200,0 102400,27300 111900,78100 -17800,-25200 -43100,-36200 -67800,-36200 -53600,0 -104000,52800 -66800,126300 28000,55300 81800,89200 137100,89200 51900,0 104900,-29900 138700,-100300 108900,-225700 -86400,-430500 -163700,-455700 12100,-3000 25000,-4400 38400,-4400 65500,0 143900,33100 209200,79000 -108500,-153600 -307700,-100800 -349400,-130400 61800,-33400 216400,-33600 216400,-33600 0,0 0,0 0,-100 -300,-300 -31000,-42900 -24500,-68200l0 0 300 -1300c200,-400 300,-800 500,-1100l0 0c100,-400 300,-800 500,-1200 45600,57100 176600,47600 268800,123100 83300,68300 189800,256800 118800,438800 72000,-94000 64600,-217300 64600,-217300 0,0 81500,75200 45300,227700 -36000,152600 -220900,235200 -220900,235200 0,0 56300,19500 75700,24000 -45800,74400 -140100,92100 -204800,104200 46000,39700 40700,93900 40700,93900 0,0 -68400,-43700 -202000,-27600 -107700,13000 -175400,-9900 -227900,-72600zm48500 -823900l0 0zm216400 -33600l0 0z"/>
   <path class="fil5" d="M3812100 279000c1200,-200 2300,-300 3500,-500 -1200,200 -2300,300 -3500,500zm3700 -600c300,0 500,-100 800,-100 -300,0 -500,100 -800,100zm59800 -15700c100,0 200,0 400,-100 -200,100 -300,100 -400,100zm1300 -400c117500,-36800 326600,-117800 522600,-117800 -196000,0 -405200,81100 -522600,117800zm522800 -117800c0,0 0,0 0,0l0 0c0,0 0,0 0,0z"/>
   <path class="fil4" d="M1989500 1454000c-117100,-201000 -149900,-533100 109300,-723100 51800,57600 48400,157800 48400,157800 0,0 5100,-116500 219300,-259200 214200,-142700 349100,-88300 539700,-221600 11900,99800 -14400,147300 -14400,147300 0,0 103900,-122300 566000,-165600 473000,-44500 873700,76800 1100800,256400 -96300,39300 -223500,89900 -223500,89900 0,0 152400,-26100 490000,199100 337700,225100 432400,250600 432400,250600 0,0 -31600,39600 -107900,42600 213700,165400 370100,389100 429800,626300 -53000,13300 -107200,-22300 -107200,-22300 0,0 202700,340700 80400,724000 44100,-38600 129200,-40300 129200,-40300 0,0 -90500,331600 -362100,475800 48200,200 112800,34900 112800,34900 0,0 -31800,-6100 -147000,94100 -130100,113100 -346900,83400 -397800,-49500 0,0 9000,-497100 -145800,-712700 -20900,44400 32200,129900 32200,129900 0,0 -93700,2600 -173900,-152200 -80200,-154700 -159400,-336100 -391000,-426500 55000,65300 59800,129700 59800,129700 0,0 -362100,-94800 -570000,-267400 38000,93000 -8000,176200 -8000,176200 0,0 -187300,-209700 -680000,-188400 26900,26900 30500,72600 30500,72600 0,0 -141900,-43400 -314200,-24700 -172200,18700 -490400,26200 -658900,-96400 -168500,-122700 -162700,-335900 -162700,-335900 0,0 41500,32100 83800,78600z"/>
   <path class="fil6" d="M4825100 935000c-19400,-13000 -38200,-25100 -56400,-36400 18200,11300 37000,23400 56400,36400zm-57000 -36800c0,0 0,0 0,0 0,0 0,0 0,0z"/>
   <path class="fil7" d="M2365400 630300c0,0 0,0 0,0 0,0 0,0 0,0zm500 -400c200,-200 400,-300 600,-400 -200,100 -400,200 -600,400z"/>
   <path class="fil8" d="M3459900 389400c65700,-6100 130000,-9000 192600,-9000 -62600,0 -126900,2900 -192600,9000zm192700 -9000c0,0 0,0 -100,0l0 0c100,0 100,0 100,0z"/>
   <path class="fil9" d="M2158000 1554200c-92300,-66800 -176800,-92800 -232500,-253400 -48800,-175900 -30800,-387000 129600,-534200 13900,-1500 26900,-5900 38400,-12500 -12700,61900 -41200,240100 2500,440300 24700,-192000 47800,-303700 89000,-395200 30000,-45300 83800,-104400 180400,-168900 0,0 0,0 0,0 200,-200 300,-300 500,-400 200,-200 400,-300 600,-400l0 0c188300,-125500 315300,-98600 472800,-180800 4600,13900 10800,27200 18500,39300 -109200,128100 -346400,287600 -243900,537500 68400,-174500 179600,-352900 277900,-470300 0,0 4500,-5300 16000,-14300 38800,-25300 63300,-44300 111700,-59700 10100,-4900 85900,-42600 277100,-71400 48200,-7800 101700,-14700 161200,-20200 700,-100 1400,-100 2100,-200 368200,-34200 806300,28300 1094700,253500 400,300 700,600 1100,900 100,0 100,0 200,0 100,200 400,400 600,600 500,300 900,700 1400,1100 200,200 400,400 700,500l0 0c-10900,-400 -22900,-700 -35900,-700 -325200,0 -1262600,154200 -1830300,611800 4200,700 9200,1000 15000,1000 187700,0 1167300,-355100 1637100,-379400 -151400,139000 -866100,448700 -1297100,527300 -101900,18600 -196500,27700 -282800,27700 -278900,0 -469700,-95100 -528000,-272200 0,0 -117000,107600 -78600,392700zm2827900 415200c-154300,-231200 -164900,-682800 -296300,-831800 225700,133200 424300,357300 296300,831800zm181800 -774200c-232100,0 -461800,-180000 -575800,-279000 -128600,-111800 -252000,-146300 -252000,-146300 0,0 13000,-9700 53200,-9700 38300,0 101400,8800 201600,43400 50100,23100 107800,53800 173400,94600 0,0 0,0 0,0 200,100 400,300 600,400 18200,11300 37000,23400 56400,36400l0 0c337700,225100 432400,250600 432400,250600l0 0c-29900,6600 -59800,9600 -89800,9600zm152000 1796500c0,0 -59000,-14400 -134200,-24000 171000,-127100 304500,-390100 312700,-475100 -52300,82600 -155300,148300 -240600,148300 -3200,0 -6400,-100 -9500,-200 134100,-188400 204500,-396800 174100,-631500 -14400,-112100 -18000,-147800 -77100,-303400 109900,98700 156800,186000 158400,188900 51400,115300 139600,375600 49600,659700 0,100 0,100 -100,300 -100,200 -100,400 -100,500 -100,300 -200,700 -300,1000l0 0c44100,-38600 129200,-40300 129200,-40300 0,0 -90500,331600 -362100,475800l0 0zm-225400 198800c-62400,0 -121700,-19500 -162600,-56200 23900,20000 65900,28800 112600,28800 78000,0 169200,-24400 211300,-61600 67400,-59400 138200,-86800 124300,-97500 29100,10000 52600,22600 52600,22600 0,0 -300,0 -1200,0l0 0 0 0c-200,0 -500,0 -800,0l0 0c-100,0 -100,0 -200,0 0,0 0,0 -100,0l0 0c-8000,500 -38500,7100 -113700,68000 -200,100 -300,200 -300,300 -1400,1100 -2700,2200 -4100,3300 -100,100 -200,100 -200,200 -200,100 -300,200 -400,300 -600,500 -1300,1000 -1900,1500 -200,200 -300,300 -400,400 -500,400 -900,700 -1300,1100 -100,0 -200,100 -200,100 -1200,1000 -2400,2000 -3600,3000 -700,600 -1400,1200 -2100,1800 -400,300 -800,700 -1200,1000 -200,100 -300,200 -500,400 -200,200 -500,400 -800,700 0,0 0,0 0,0 -400,300 -900,700 -1300,1000 -2800,2400 -5600,4800 -8500,7300 0,100 -100,100 -200,100 -200,400 -600,600 -900,900 -200,200 -400,300 -500,400 -200,200 -300,300 -500,400 -100,200 -300,300 -500,400 -500,500 -1100,1000 -1600,1500 -18000,15600 -37500,28500 -58100,38800 -4900,2400 -9900,4700 -14900,6900 -100,0 -200,0 -300,100 -200,100 -300,100 -500,200 -37800,16100 -78200,23800 -117400,23800z"/>
   <path class="fil10" d="M5552600 2556200c100,-300 200,-700 300,-1000 -100,300 -200,700 -300,1000l0 0zm400 -1500c100,-200 100,-200 100,-300 0,100 0,200 -100,300z"/>
   <path class="fil6" d="M5554500 1857500c-13500,0 -26600,-2500 -38200,-5800l0 0c11600,3300 24700,5800 38200,5800 8100,0 16300,-900 24600,-2900 -8300,2000 -16500,2900 -24600,2900z"/>
   <path class="fil10" d="M5516300 1851700c-2100,-600 -4200,-1300 -6200,-1900 2000,600 4100,1300 6200,1900l0 0z"/>
   <path class="fil6" d="M5579400 1854500c0,-400 -100,-800 -300,-1300 200,500 300,900 300,1300zm-500 -2100c0,-100 0,-200 0,-300 0,100 0,200 0,300zm-300 -1400c0,0 0,0 0,-100 0,100 0,100 0,100z"/>
   <path class="fil11" d="M5554500 1857500c-13500,0 -26600,-2500 -38200,-5800 -2100,-600 -4200,-1300 -6200,-1900 -12600,-4200 -23000,-9300 -29600,-12900 200,200 6100,3000 14800,3000 3600,0 7500,-400 11700,-1800 -43700,-262800 -249000,-511900 -265400,-531500 165300,153700 285600,344100 337000,544300 0,100 0,100 0,100 100,400 100,700 300,1100 0,100 0,200 0,300 100,300 200,600 200,800 200,500 300,900 300,1300l0 0c0,0 -200,0 -300,100 -8300,2000 -16500,2900 -24600,2900z"/>
   <path class="fil6" d="M5211700 3166700c200,-100 300,-100 500,-200 -200,100 -300,100 -500,200zm800 -300c5000,-2200 10000,-4500 14900,-6900l0 0c-4900,2400 -9900,4700 -14900,6900z"/>
   <path class="fil10" d="M5227400 3159500l0 0c20600,-10300 40100,-23200 58100,-38800 500,-500 1100,-1000 1600,-1500 -500,500 -1100,1000 -1600,1500 -18000,15600 -37500,28500 -58100,38800zm60200 -40700c200,-100 300,-200 500,-400 -200,200 -300,300 -500,400zm1000 -800c300,-300 700,-500 900,-900 -200,400 -600,600 -900,900zm1100 -1000c2900,-2500 5700,-4900 8500,-7300 -2800,2400 -5600,4800 -8500,7300zm9800 -8300c0,0 0,0 0,0 0,0 0,0 0,0zm800 -700c200,-200 300,-300 500,-400 -200,100 -300,200 -500,400zm1700 -1400c700,-600 1400,-1200 2100,-1800 -700,600 -1400,1200 -2100,1800zm5700 -4800c0,0 100,-100 200,-100 -100,0 -200,100 -200,100zm1500 -1200c100,-100 200,-200 400,-400 -200,200 -300,300 -400,400zm2300 -1900c100,-100 200,-200 400,-300 -200,100 -300,200 -400,300zm600 -500c1400,-1100 2700,-2200 4100,-3300 -1400,1100 -2700,2200 -4100,3300zm4400 -3600c75200,-60900 105700,-67500 113700,-68000 -8000,500 -38500,7100 -113700,68000zm113700 -68000c100,0 100,0 100,0 0,0 0,0 -100,0zm300 0l0 0zm800 0l0 0 0 0 0 0z"/>
   <path class="fil12" d="M4892000 3071400c-1500,0 -2900,-100 -4300,-200l0 0c0,0 200,-5300 200,-15100 0,-46000 -2200,-190500 -26300,-344000l0 -100c26700,170000 26500,328900 26200,355300 1400,1500 2800,2800 4200,4100z"/>
  </g>
 </g>
</svg>
